<svg xmlns="http://www.w3.org/2000/svg" viewBox="0 0 66.11 58.36"><defs><style>.cls-1{fill:#ffffff;}</style></defs><title>Asset 8</title><g id="Layer_2" data-name="Layer 2"><g id="Layer_1-2" data-name="Layer 1"><path class="cls-1" d="M61.85,58.36H4.26A4.18,4.18,0,0,1,.48,56.42,4.17,4.17,0,0,1,.7,52.18L29.49,2.31A4.18,4.18,0,0,1,33.06,0a4.18,4.18,0,0,1,3.56,2.31l28.8,49.87a3.9,3.9,0,0,1-3.56,6.17Zm-57.78-4H62L62,54.18,33.16,4.31l-.1-.15-.1.15L4.16,54.18Z"/><path class="cls-1" d="M33.84,25.5H32.28a.66.66,0,0,1-.66-.66V23.22a.66.66,0,0,1,.66-.66h1.56a.66.66,0,0,1,.66.66v1.62A.66.66,0,0,1,33.84,25.5Zm0,19.91H32.28a.66.66,0,0,1-.66-.66V30.22a.66.66,0,0,1,.66-.66h1.56a.66.66,0,0,1,.66.66V44.74A.66.66,0,0,1,33.84,45.41Z"/></g></g></svg>
