<svg xmlns="http://www.w3.org/2000/svg" viewBox="0 0 57 23.01"><defs><style>.cls-1{fill:#ffffff;}</style></defs><title>Asset 6</title><g id="Layer_2" data-name="Layer 2"><g id="Layer_1-2" data-name="Layer 1"><path class="cls-1" d="M52.67,4.71A6,6,0,0,0,46.8,0H6A6,6,0,0,0,0,6V17a6,6,0,0,0,6,6H46.8a6,6,0,0,0,5.87-4.71A4.44,4.44,0,0,0,57,13.86V9.15A4.44,4.44,0,0,0,52.67,4.71ZM49.68,17a2.88,2.88,0,0,1-2.88,2.88H6A2.88,2.88,0,0,1,3.14,17V6A2.88,2.88,0,0,1,6,3.14H46.8A2.88,2.88,0,0,1,49.68,6Z"/></g></g></svg>
