<svg xmlns="http://www.w3.org/2000/svg" viewBox="0 0 348.89 383.22"><defs><style>.cls-1{fill:#ffffff;}</style></defs><title>Asset 14</title><g id="Layer_2" data-name="Layer 2"><g id="Layer_1-2" data-name="Layer 1"><path class="cls-1" d="M33.86,346.18q-4.14-3.57-12.33-6A38.82,38.82,0,0,1,14.28,337a3.88,3.88,0,0,1-1.93-3.38,4.48,4.48,0,0,1,1.91-3.66,8.42,8.42,0,0,1,5.28-1.49,7.62,7.62,0,0,1,5.38,1.8,6.07,6.07,0,0,1,1.95,4.67H37.71l.07-.2a12.53,12.53,0,0,0-4.94-10.58Q27.74,320,19.75,320T6.46,323.77a11.48,11.48,0,0,0-5.23,9.77q0,6.21,4.39,9.49t13.5,6.16a21.5,21.5,0,0,1,6,2.94,4.8,4.8,0,0,1,1.68,3.93,4.46,4.46,0,0,1-1.7,3.63A8.07,8.07,0,0,1,20,361.07q-4.56,0-6.8-1.78t-2.24-5.94H.07l-.07.2q-.17,7.73,5.81,11.84A24.37,24.37,0,0,0,20,369.49q8.15,0,13.09-3.58A11.58,11.58,0,0,0,38,356,12.26,12.26,0,0,0,33.86,346.18Z"/><path class="cls-1" d="M73.06,358.63V345.16q0-6.14-4.11-9.44t-10.71-3.3q-7.06,0-11.36,3.28a9.33,9.33,0,0,0-4.06,8.17l.07.2,10.8,0a3.77,3.77,0,0,1,.94-2.82,4,4,0,0,1,2.86-.91,4.19,4.19,0,0,1,3.32,1.22,5.14,5.14,0,0,1,1.07,3.5v2.54H57.81q-8.12,0-12.1,2.89a9.53,9.53,0,0,0-4,8.2,10.13,10.13,0,0,0,3.19,7.82,11.72,11.72,0,0,0,8.27,2.94,10.67,10.67,0,0,0,5.45-1.3,12.26,12.26,0,0,0,3.83-3.52,20.28,20.28,0,0,0,.64,2.18,14,14,0,0,0,.84,1.91l11,0a27.28,27.28,0,0,1-1.44-4.85A27.71,27.71,0,0,1,73.06,358.63Zm-11.19.53a6.36,6.36,0,0,1-2.24,1.72,7,7,0,0,1-3,.66,3.86,3.86,0,0,1-2.69-.94,3.16,3.16,0,0,1-1-2.46,4.59,4.59,0,0,1,1.2-3.27,5.05,5.05,0,0,1,3.85-1.29h4Z"/><path class="cls-1" d="M95.81,316.6q-6.77,0-10.47,3.3t-3.7,9.47v3.7H76.5v7.73h5.15v28H92.84v-28h6.93v-7.73H92.84v-3.7a4.13,4.13,0,0,1,1.12-3.1,4.41,4.41,0,0,1,3.2-1.09,15.49,15.49,0,0,1,1.73.08q.71.08,1.6.25l.83-8.22q-1.62-.33-2.94-.51A19,19,0,0,0,95.81,316.6Z"/><path class="cls-1" d="M118.52,332.42q-8,0-12.23,5.13T102,350.87v1.25a17.31,17.31,0,0,0,4.7,12.41q4.7,5,12.59,5a27.06,27.06,0,0,0,8-1.14,20.31,20.31,0,0,0,6.06-2.86l-2.64-6.8a37.26,37.26,0,0,1-4.8,1.72,20.81,20.81,0,0,1-5.07.5,7,7,0,0,1-5-1.77,7.29,7.29,0,0,1-2.24-4.51l.07-.2H134v-5.84q0-7.46-4.13-11.82T118.52,332.42Zm4.62,15.05h-9.61l-.1-.17a9.39,9.39,0,0,1,1.47-4.59,4.79,4.79,0,0,1,7.11-.26,6.69,6.69,0,0,1,1.12,4.16Z"/><path class="cls-1" d="M150,330.37a9.22,9.22,0,0,1,7.81-3.89q5.12,0,7.74,2.71t2.62,7.56h7.76l.07-.2q.13-7.56-4.77-12T157.81,320a17.46,17.46,0,0,0-13.52,5.69q-5.2,5.69-5.2,14.48v9.14q0,8.81,5.27,14.48A17.83,17.83,0,0,0,158,369.49q8.32,0,13.19-4.57A15.14,15.14,0,0,0,176,353l-.07-.2h-7.73q0,4.87-2.58,7.54T158,363.05a9.49,9.49,0,0,1-8-3.89,15.79,15.79,0,0,1-3-9.83v-9.2A15.93,15.93,0,0,1,150,330.37Z"/><path class="cls-1" d="M200.72,332.42a11.69,11.69,0,0,0-5.66,1.39,12.75,12.75,0,0,0-4.34,3.9V317.3h-8v51.5h8V342.65a8.65,8.65,0,0,1,3.09-2.69,9,9,0,0,1,4.21-1,6.43,6.43,0,0,1,5.05,1.88q1.68,1.88,1.68,6.11V368.8h8V347q0-7.46-3.19-11T200.72,332.42Z"/><path class="cls-1" d="M249.45,360.58V344.7q0-5.94-3.83-9.11t-10.07-3.17q-6.44,0-10.45,3.27t-3.78,7.49l0,.2h7.73a4.19,4.19,0,0,1,1.62-3.4,6.69,6.69,0,0,1,4.36-1.32,6.55,6.55,0,0,1,4.72,1.58,5.8,5.8,0,0,1,1.65,4.39v3.14h-6.24q-7.43,0-11.52,2.89a9.32,9.32,0,0,0-4.09,8.07,10.43,10.43,0,0,0,3,7.89q3,2.87,8.57,2.87a11,11,0,0,0,6-1.7,14.19,14.19,0,0,0,4.34-4.21,19,19,0,0,0,.38,2.58q.28,1.29.71,2.64h8.12a22.49,22.49,0,0,1-1-4A29.29,29.29,0,0,1,249.45,360.58Zm-8-2.51a7.64,7.64,0,0,1-3.22,3.47,10.09,10.09,0,0,1-5.46,1.52,5.5,5.5,0,0,1-3.81-1.2,4.16,4.16,0,0,1-1.34-3.25,5.26,5.26,0,0,1,2-4.08,8,8,0,0,1,5.48-1.73h6.37Z"/><path class="cls-1" d="M274.11,332.42a8.1,8.1,0,0,0-4.9,1.55,11.46,11.46,0,0,0-3.48,4.29l-.53-5.18h-7.33V368.8h8V344a6.53,6.53,0,0,1,2.43-2.81,7.19,7.19,0,0,1,3.91-1l3.43.13,1-7.49a9.88,9.88,0,0,0-1.16-.28A7.43,7.43,0,0,0,274.11,332.42Z"/><path class="cls-1" d="M303.66,337.73a11.89,11.89,0,0,0-4.11-3.95,11.26,11.26,0,0,0-5.63-1.37,12,12,0,0,0-10.37,5.25q-3.73,5.25-3.73,13.77v.69q0,7.79,3.73,12.58a12.34,12.34,0,0,0,10.3,4.79,12,12,0,0,0,5.27-1.11,11.22,11.22,0,0,0,4-3.25v3.66q0,3.86-2,5.73t-6.37,1.87a21,21,0,0,1-4.94-.58,19.41,19.41,0,0,1-4.37-1.6l-1.72,6.31a26.19,26.19,0,0,0,5.46,2,23.66,23.66,0,0,0,5.63.74q7.82,0,12.08-3.76t4.26-10.66V333.08h-6.67Zm-.56,21.06a7.93,7.93,0,0,1-2.86,3.09A8.22,8.22,0,0,1,295.9,363a6.8,6.8,0,0,1-6.09-3,14,14,0,0,1-2-7.87v-.69a17.84,17.84,0,0,1,2-9A6.6,6.6,0,0,1,296,339a7.83,7.83,0,0,1,4.24,1.11,8.57,8.57,0,0,1,2.89,3.05Z"/><path class="cls-1" d="M348.89,353.25v-4.72q0-7.36-3.85-11.74T334,332.42a14.15,14.15,0,0,0-11.21,5.1,19,19,0,0,0-4.47,12.92v1.32q0,7.79,4.51,12.76t12.1,5a22.3,22.3,0,0,0,7.73-1.23,16.55,16.55,0,0,0,5.35-3L345.39,360a18.19,18.19,0,0,1-4.46,2.28,17.17,17.17,0,0,1-5.55.79,7.9,7.9,0,0,1-6.35-2.7,11.19,11.19,0,0,1-2.49-6.94l.07-.17Zm-19.81-12a6,6,0,0,1,4.89-2.36A6.32,6.32,0,0,1,339.2,341a8.55,8.55,0,0,1,1.73,5.55v.83H326.77l-.07-.17A11.63,11.63,0,0,1,329.08,341.21Z"/><path class="cls-1" d="M266.79,23.42h-67V11.5A11.5,11.5,0,0,0,188.34,0H160.55A11.51,11.51,0,0,0,149,11.5V23.42h-67c-8.1,0-10.58,6.36-11.27,14.12-1.75,19.64-.29,40.77-.29,58.8,0,78.61,28.13,139.47,95.72,172.6a19.73,19.73,0,0,0,8,1.83v0h.27v0a19.72,19.72,0,0,0,8-1.83c67.6-33.13,95.72-94,95.72-172.6,0-19.44,1.46-39.16-.29-58.8C277.37,29.78,274.9,23.42,266.79,23.42ZM171.56,65.88h17.23l-11.62,22h28l-48.88,43.27,15.22-28.81H150.73ZM181,245.5a15.93,15.93,0,0,1-6.5,1.48h-.22a15.93,15.93,0,0,1-6.5-1.48,144.11,144.11,0,0,1-26.23-16.42h65.66A144.06,144.06,0,0,1,181,245.5Zm44.43-34.15H123.41A124.38,124.38,0,0,1,110.68,193H238.21A124.38,124.38,0,0,1,225.48,211.35Zm21.18-36H102.23a153.52,153.52,0,0,1-6-18.87H252.67A153.52,153.52,0,0,1,246.65,175.31Z"/></g></g></svg>