<svg xmlns="http://www.w3.org/2000/svg" viewBox="0 0 67.38 87.33"><defs><style>.cls-1{fill:#ffffff;}</style></defs><title>Asset 13</title><g id="Layer_2" data-name="Layer 2"><g id="Layer_1-2" data-name="Layer 1"><path class="cls-1" d="M67.11,12.11c-.22-2.5-1-4.55-3.63-4.55H41.88V3.71A3.71,3.71,0,0,0,38.17,0h-9A3.71,3.71,0,0,0,25.5,3.71V7.55H3.91C1.3,7.55.5,9.6.28,12.11c-.56,6.33-.09,13.15-.09,19,0,25.35,9.07,45,30.87,55.66a6.36,6.36,0,0,0,2.59.59h.09a6.36,6.36,0,0,0,2.59-.59C58.13,76,67.2,56.42,67.2,31.07,67.2,24.8,67.67,18.44,67.11,12.11ZM32.76,21.25h5.56l-3.75,7.11h9l-15.76,14L32.76,33H26ZM58.92,50.45A49.51,49.51,0,0,1,57,56.54H10.4a49.51,49.51,0,0,1-1.94-6.08ZM17.23,68.16a40.11,40.11,0,0,1-4.11-5.9H54.25a40.11,40.11,0,0,1-4.11,5.9Zm18.59,11a5.14,5.14,0,0,1-2.1.48h-.07a5.14,5.14,0,0,1-2.1-.48,46.47,46.47,0,0,1-8.46-5.29H44.28A46.46,46.46,0,0,1,35.82,79.17Z"/></g></g></svg>
